<svg xmlns="http://www.w3.org/2000/svg" width="70" height="70" viewBox="0 0 70 70">
    <g fill="none" fill-rule="evenodd">
        <g fill="#FFF" stroke="#FFF" stroke-width=".3">
            <g>
                <g>
                    <g>
                        <g>
                            <path d="M64.08 33.565l-8.738 10.917-4.68-10.834 13.419-.083zm-20.863 8.54l7.055-8.125 4.625 10.707-11.68-2.582zm.85 12.981l-1.9-4.534 4.072-1.918 1.606 3.186-1.658 1.604-2.12 1.662zm-15.143-1.889l3.812 1.797 3.897-1.836 1.958 6.222-5.943 4.66-5.9-4.656 2.176-6.187zm-9.706-4.57l4.086 1.924-1.998 4.538-2.11-1.665-1.826-1.767 1.848-3.03zM14.811 33.65L10.1 44.554 1.37 33.65h13.44zm7.61-15.788l-9.227-3.604-.115-.045-1.752 3.953.44.89-1.412-.397.21-.699-.366.59-1.42-1.374 6.331-9.27 7.31 9.956zm-.072-12.044l5.67 12.275-4.066 1.036-8.434-11.49 6.454-1.642.376-.18zM32.49 2.195l.001 16.642-1.51-1.328-4.227-13.822 3.084-1.492h2.652zM30.336 38.5l2.4-17.649L35.138 38.5h-4.8zm4.159-20.993l-1.513 1.33V2.196h2.563l3.668 1.773-4.718 13.537zm7.026 1.623l-4.057-1.033L43.58 6.04l6.361 1.619-8.42 11.47zm13.794-.705l-1.686.677.696-1.458-1.575-3.428-9.804 3.794 7.37-10.04 6.29 9.207-1.29 1.248zm-9.626 4.755l13.113 1.681 4.902 7.905-15.416-7.003-2.6-2.583zm17.577 9.914l-12.835.08-1.91-6.779 14.745 6.7zM37.372 52.28l5.401-9.542 3.235 5.475-8.636 4.067zm-.258.652l4.61-2.17 1.943 4.638-4.664 3.657-1.91-6.073.039-.028-.018-.024zM22.238 42.56l-3.329 5.637-1.898 3.114-6.358-6.152 11.585-2.599zm-.034-.481l-11.627 2.608 4.625-10.706 6.981 8.04.02.058zm-5.018-16.316l-.04.018-.17-.089-.124.223-15.245 6.97 4.98-8.03L20.64 22.33l-3.454 3.432zm.426.26l6.27-6.231 7.728 5.699-.992 7.288-13.006-6.757zM35.65 38.625l-.723-5.32 12.794-6.848-5.1 15.457-6.97-3.289zm.72 14.126l-3.633 1.711-3.652-1.72 3.482-5.05 3.803 5.06zM22.946 42.32l6.715-3.093-.846 3.211.1.211 3.565 1.698-.164 2.85-3.532 5.127-5.885-9.923.047-.08zm5.279 10.018l-8.76-4.125 3.151-5.332 5.609 9.457zm4.512-8.4l-3.385-1.612.882-3.35h5.005l.883 3.35-3.385 1.611zm.234.42l3.587-1.709.1-.21-.844-3.205 6.615 3.121-5.699 10.067-3.922-5.218.163-2.847zM30.55 33.283l-.726 5.34-7.105 3.273-.101-.117-3.26-9.125-1.593-6.013 12.785 6.642zm-13.598-6.888l-1.91 6.777H2.127l14.825-6.777zm1.932 6.382l2.85 7.984-6.282-7.235 1.871-6.638 1.56 5.889zm29.241-5.98l1.897 6.73-6.64 7.646 4.743-14.376zm-2.267-4.079l3.455-1.392.003-.001 2.712 1.131 1.297-2.718L55.167 19l3.31 5.338-12.619-1.619zm6.636-7.891l1.29 2.81-2.001 4.198-8.372-3.494 9.083-3.514zm-10.586 4.595l.668-.91 6.11 2.55-3.647 1.47-3.131-3.11zm5.834 6.479l-12.884 6.897-.994-7.31 7.727-5.698 3.184 3.163.015.11.096.013 2.856 2.825zm-6.603-6.377l-7.35 5.42-.75-5.515 1.735-1.526 6.365 1.62zm-6.114-2.05l4.632-13.291 3.465 1.676-6.143 12.113-1.954-.498zm-10.69 2.05l6.364-1.62 1.735 1.525-.75 5.515-7.35-5.42zm4.167-1.554L22.789 5.605l3.52-1.702 4.15 13.57-1.957.498zM10.155 19.1l1.897.532 1.399 2.83 3.356-1.494 3.398.954-13.28 2.386 3.23-5.208zm11.75-.925l-8.22 3.657-1.817-3.677 1.473-3.325 8.563 3.345zm1.66 1.248l-2.311 2.297-3.763-1.057 5.266-2.343.809 1.103zm4.894 33.62l-2.117 6.02-4.639-3.66 2.044-4.644 4.617 2.175-.022.033.117.076zm14.802-10.44l11.486 2.54-6.534 6.321-1.531-3.037.015-.007-3.436-5.816zm21.482-9.087l-9.124-14.712 1.619-1.566-6.765-9.904-.027-.04-6.862-1.744-7.896-3.82-5.965-.012-7.899 3.824-6.839 1.74-.047.013-6.733 9.858-.058.085 1.618 1.566L.728 33.375l-.087.14 9.345 11.672 8.882 8.592L32.567 64.59l.08.063L46.52 53.775l8.793-8.507.016.004.185-.213.046-.07-.002-.003 9.184-11.47z" transform="translate(-532 -403) translate(352 393) translate(129 10) translate(51) translate(2.47 2.47)"/>
                        </g>
                    </g>
                </g>
            </g>
        </g>
    </g>
</svg>
